<?xml version="1.0" encoding="UTF-8" standalone="no"?>
<!-- This Source Code Form is subject to the terms of the Mozilla Public
   - License, v. 2.0. If a copy of the MPL was not distributed with this
   - file, You can obtain one at http://mozilla.org/MPL/2.0/. -->

<svg
   sodipodi:docname="about-wordmark.svg"
   id="svg4"
   version="1.1"
   viewBox="0 0 205 48"
   height="48"
   width="205"
   inkscape:version="1.2.2 (732a01da63, 2022-12-09)"
   xmlns:inkscape="http://www.inkscape.org/namespaces/inkscape"
   xmlns:sodipodi="http://sodipodi.sourceforge.net/DTD/sodipodi-0.dtd"
   xmlns="http://www.w3.org/2000/svg"
   xmlns:svg="http://www.w3.org/2000/svg">
  <defs
     id="defs8" />
  <sodipodi:namedview
     id="namedview6"
     pagecolor="#000000"
     bordercolor="#000000"
     borderopacity="0.25"
     inkscape:showpageshadow="2"
     inkscape:pageopacity="0"
     inkscape:pagecheckerboard="0"
     inkscape:deskcolor="#d1d1d1"
     showgrid="false"
     inkscape:zoom="6.4818122"
     inkscape:cx="126.97066"
     inkscape:cy="30.77843"
     inkscape:window-width="1350"
     inkscape:window-height="1018"
     inkscape:window-x="534"
     inkscape:window-y="95"
     inkscape:window-maximized="0"
     inkscape:current-layer="text350" />
  <g
     aria-label="Coalcat"
     id="text350"
     style="font-size:58.6667px;fill:#ffffff">
    <path
       d="m 19.472226,46.422081 q -6.273441,0 -10.4843804,-2.750001 Q 4.8055516,40.922078 2.6857588,36.138222 0.59461185,31.354365 0.59461185,25.281445 v -0.601563 q 0,-6.130212 2.20573035,-10.885423 2.2057304,-4.7838563 6.3307326,-7.5338578 4.1250022,-2.7500015 9.8541722,-2.7500015 4.039065,0 7.390629,1.2604174 3.351564,1.2604173 5.557295,3.2083351 V 16.974149 H 27.435772 L 26.834209,10.385603 Q 25.917542,9.6694572 24.714417,9.1824778 23.539937,8.6954984 22.078998,8.4376857 20.646706,8.1798731 18.956601,8.1798731 q -4.096356,0 -6.932295,2.1197929 -2.8359395,2.091147 -4.2968778,5.786461 -1.4609383,3.695315 -1.4609383,8.536463 v 0.658855 q 0,5.24219 1.5468759,8.966151 1.5755217,3.695314 4.5546902,5.643232 3.007814,1.947918 7.304691,1.947918 2.00521,0 3.924481,-0.48698 1.919272,-0.486979 3.17969,-1.260417 l 0.630208,-5.815108 h 4.411461 v 9.052089 q -2.34896,1.460938 -5.614586,2.291668 -3.265627,0.802083 -6.731775,0.802083 z"
       style="font-family:'Roboto Slab';-inkscape-font-specification:'Roboto Slab'"
       id="path467" />
    <path
       d="m 51.383701,46.422081 q -4.296877,0 -7.419275,-2.005209 -3.093752,-2.033855 -4.783857,-5.585941 -1.690105,-3.580731 -1.690105,-8.164067 v -0.630208 q 0,-4.583336 1.690105,-8.135421 1.690105,-3.580731 4.783857,-5.614587 3.122398,-2.033855 7.361983,-2.033855 4.296878,0 7.390629,2.033855 3.122398,2.033856 4.812503,5.585941 1.690105,3.552085 1.690105,8.164067 v 0.630208 q 0,4.611982 -1.690105,8.192713 -1.690105,3.552085 -4.783857,5.557295 -3.093752,2.005209 -7.361983,2.005209 z m 0,-4.41146 q 2.69271,0 4.497398,-1.460939 1.833335,-1.489584 2.750002,-4.039064 0.945313,-2.578127 0.945313,-5.843754 v -0.630208 q 0,-3.265627 -0.945313,-5.815108 -0.916667,-2.578126 -2.750002,-4.039064 -1.833334,-1.489584 -4.55469,-1.489584 -2.69271,0 -4.526044,1.489584 -1.833334,1.460938 -2.750001,4.039064 -0.916668,2.549481 -0.916668,5.815108 v 0.630208 q 0,3.265627 0.916668,5.843754 0.916667,2.54948 2.750001,4.039064 1.86198,1.460939 4.583336,1.460939 z"
       style="font-family:'Roboto Slab';-inkscape-font-specification:'Roboto Slab'"
       id="path470" />
    <path
       d="m 80.172783,46.422081 q -4.841149,0 -7.361983,-2.348959 -2.520835,-2.377606 -2.520835,-6.674483 0,-2.950523 1.604168,-5.127607 1.632813,-2.20573 4.697919,-3.408856 3.065106,-1.231772 7.333337,-1.231772 h 5.528649 v -3.03646 q 0,-2.807293 -1.718751,-4.354169 Q 86.045182,18.6929 82.95143,18.6929 q -1.947918,0 -3.38021,0.486979 -1.432292,0.458334 -2.606772,1.289063 l -0.601563,4.325523 h -4.354169 v -7.10417 q 2.091147,-1.690105 4.869794,-2.549481 2.778648,-0.888021 6.158858,-0.888021 5.643232,0 8.851567,2.69271 3.208335,2.69271 3.208335,7.705733 v 14.924487 q 0,0.601563 0,1.17448 0.02865,0.572917 0.08594,1.145834 l 3.007814,0.315105 v 3.609376 h -8.106775 q -0.257813,-1.260417 -0.401042,-2.263022 -0.14323,-1.002604 -0.200521,-2.005209 -1.632814,2.091147 -4.096357,3.494794 -2.434897,1.375 -5.213544,1.375 z m 0.830729,-4.726565 q 2.807294,0 5.127607,-1.346355 2.320314,-1.346355 3.322919,-3.236981 v -5.614586 h -5.72917 q -3.895835,0 -5.843753,1.86198 -1.947918,1.86198 -1.947918,4.153648 0,2.033856 1.260418,3.122398 1.260417,1.059896 3.809897,1.059896 z"
       style="font-family:'Roboto Slab';-inkscape-font-specification:'Roboto Slab'"
       id="path473" />
    <path
       d="m 102.28737,45.820518 v -3.609376 l 4.66927,-0.802084 V 5.5731009 L 102.28737,4.7710171 V 1.1329943 h 10.31251 V 41.409058 l 4.66927,0.802084 v 3.609376 z"
       style="font-family:'Roboto Slab';-inkscape-font-specification:'Roboto Slab'"
       id="path476" />
    <path
       d="m 135.00093,46.422081 q -4.21094,0 -7.33334,-1.947917 -3.12239,-1.976564 -4.84115,-5.471358 -1.71875,-3.494793 -1.71875,-8.078129 v -1.203126 q 0,-4.41146 1.66146,-7.906254 1.66146,-3.494793 4.78386,-5.528649 3.1224,-2.033855 7.44792,-2.033855 3.75261,0 6.5599,1.231772 2.83594,1.231771 4.75521,3.38021 l 0.14323,7.44792 h -4.41146 l -0.97396,-5.414065 q -0.97396,-1.002605 -2.4349,-1.604168 -1.46094,-0.601562 -3.4375,-0.601562 -2.52083,0 -4.44011,1.489584 -1.89062,1.489584 -2.95052,3.981773 -1.05989,2.492189 -1.05989,5.557294 v 1.203126 q 0,3.38021 0.97395,5.872399 1.00261,2.492189 2.83594,3.86719 1.86198,1.346355 4.41146,1.346355 2.86459,0 4.75522,-1.575522 1.89062,-1.575522 2.32031,-4.325523 h 5.07031 l 0.0573,0.171875 q -0.14323,2.664064 -1.57553,4.984378 -1.43229,2.320313 -4.09635,3.752606 -2.63542,1.403646 -6.50261,1.403646 z"
       style="font-family:'Roboto Slab';-inkscape-font-specification:'Roboto Slab'"
       id="path479" />
    <path
       d="m 162.1572,46.422081 q -4.84114,0 -7.36198,-2.348959 -2.52083,-2.377606 -2.52083,-6.674483 0,-2.950523 1.60416,-5.127607 1.63282,-2.20573 4.69792,-3.408856 3.06511,-1.231772 7.33334,-1.231772 h 5.52865 v -3.03646 q 0,-2.807293 -1.71875,-4.354169 -1.69011,-1.546875 -4.78386,-1.546875 -1.94792,0 -3.38021,0.486979 -1.43229,0.458334 -2.60677,1.289063 l -0.60156,4.325523 h -4.35417 v -7.10417 q 2.09114,-1.690105 4.86979,-2.549481 2.77865,-0.888021 6.15886,-0.888021 5.64323,0 8.85157,2.69271 3.20833,2.69271 3.20833,7.705733 v 14.924487 q 0,0.601563 0,1.17448 0.0286,0.572917 0.0859,1.145834 l 3.00781,0.315105 v 3.609376 h -8.10677 q -0.25782,-1.260417 -0.40104,-2.263022 -0.14323,-1.002604 -0.20053,-2.005209 -1.63281,2.091147 -4.09635,3.494794 -2.4349,1.375 -5.21355,1.375 z m 0.83073,-4.726565 q 2.8073,0 5.12761,-1.346355 2.32031,-1.346355 3.32292,-3.236981 v -5.614586 h -5.72917 q -3.89584,0 -5.84375,1.86198 -1.94792,1.86198 -1.94792,4.153648 0,2.033856 1.26042,3.122398 1.26041,1.059896 3.80989,1.059896 z"
       style="font-family:'Roboto Slab';-inkscape-font-specification:'Roboto Slab'"
       id="path482" />
    <path
       d="m 195.50096,46.307498 q -3.4375,0 -5.47135,-2.005209 -2.00521,-2.033856 -2.00521,-6.473962 V 19.008004 h -4.89844 V 14.82571 h 4.89844 V 7.3491435 h 5.64323 V 14.82571 h 6.73177 v 4.182294 h -6.73177 v 18.820323 q 0,2.234376 0.88802,3.294272 0.88802,1.059897 2.37761,1.059897 1.0026,0 2.23437,-0.171875 1.23177,-0.200521 1.91927,-0.343751 l 0.77344,3.695315 q -1.23177,0.372396 -3.03646,0.658854 -1.77604,0.286459 -3.32292,0.286459 z"
       style="font-family:'Roboto Slab';-inkscape-font-specification:'Roboto Slab'"
       id="path485" />
  </g>
</svg>
